<?xml version="1.0" encoding="UTF-8" standalone="no"?>
<svg
   xmlns:dc="http://purl.org/dc/elements/1.1/"
   xmlns:cc="http://creativecommons.org/ns#"
   xmlns:rdf="http://www.w3.org/1999/02/22-rdf-syntax-ns#"
   xmlns:svg="http://www.w3.org/2000/svg"
   xmlns="http://www.w3.org/2000/svg"
   xmlns:xlink="http://www.w3.org/1999/xlink"
   xml:space="preserve"
   style="enable-background:new 0 0 464.66 194.8;"
   viewBox="0 0 464.66 194.8"
   y="0px"
   x="0px"
   id="Layer_1"
   version="1.1"><metadata
     id="metadata125"><rdf:RDF><cc:Work
         rdf:about=""><dc:format>image/svg+xml</dc:format><dc:type
           rdf:resource="http://purl.org/dc/dcmitype/StillImage" /></cc:Work></rdf:RDF></metadata><defs
     id="defs123" /><style
     id="style2"
     type="text/css">
	.st0{fill:#2D87C8;}
	.st1{fill:#676767;}
	.st2{fill:#737375;}
	.st3{clip-path:url(#SVGID_2_);}
	.st4{fill:#485FAB;}
	.st5{fill:#652A80;}
	.st6{fill:#487F3B;}
	.st7{fill:#C22026;}
	.st8{fill:#E5D71B;}
	.st9{fill:#E28B25;}
	.st10{fill-rule:evenodd;clip-rule:evenodd;fill:#FFFFFF;}
	.st11{fill-rule:evenodd;clip-rule:evenodd;fill:#EBE1E0;}
	.st12{fill:none;}
	.st13{clip-path:url(#SVGID_4_);}
</style><polygon
     id="polygon4"
     points="144.34,56.11 131.48,30.23 123.69,30.23 123.69,69.19 129.87,69.19 129.87,40.08 142.17,65.13   146.45,65.13 158.75,40.08 158.81,69.19 164.88,69.19 164.88,30.23 157.14,30.23 "
     class="st0" /><path
     id="path6"
     d="M179.74,40.19c0-2.62,2.51-4.06,6.35-4.06c2.95,0,7.18,1.06,11.41,3.62l2.73-5.79  c-3.62-2.39-8.57-4.01-13.64-4.01c-8.46,0-14.19,4.17-14.19,10.85c0,13.86,21.04,9.02,21.04,17.7c0,3-2.73,4.73-7.29,4.73  c-4.18,0-9.18-2-13.19-5.68l-2.84,5.68c4.01,3.67,9.8,6.18,15.92,6.18c8.57,0,14.69-4.29,14.69-11.24  C200.78,44.15,179.74,48.71,179.74,40.19z"
     class="st0" /><path
     id="path8"
     d="M225.32,39.58l-8.24,22.43l-8.85-22.43h-6.62l12.24,29.17l-1,2.23c-1,2.23-2.56,3.28-4.51,3.28  c-1.34,0-2.45-0.44-3.84-1.45l-2.73,4.95c2.06,1.73,4.18,2.51,6.85,2.51c4.45,0,7.79-2.34,9.63-7.01l13.47-33.67H225.32z"
     class="st0" /><path
     id="path10"
     d="M238.51,47.37c0-2.12,1.83-2.95,4.34-2.95c2.62,0,5.9,1,8.51,2.62l2.34-4.73c-2.67-1.89-6.62-3.01-10.35-3.01  c-5.68,0-10.91,2.56-10.91,8.57c-0.05,10.68,15.53,7.29,15.53,13.36c0,2.23-2.12,3.17-4.84,3.17c-3.23,0-7.34-1.39-9.91-3.67  l-2.28,4.56c2.95,2.67,7.57,4.12,11.91,4.12c5.95,0,11.35-2.73,11.35-8.79C254.26,49.88,238.51,52.83,238.51,47.37z"
     class="st0" /><polygon
     id="polygon12"
     points="137.94,92.47 137.94,125.53 131.37,125.53 131.37,92.47 119.07,92.47 119.07,86.57 150.29,86.57   150.29,92.47 "
     class="st1" /><path
     id="path14"
     d="M176.29,113.18h-22.37c1,4.56,4.51,7.4,9.18,7.4c3.23,0,6.18-1.22,8.35-3.45l3.39,3.62  c-2.89,3.17-7.12,5.01-12.24,5.01c-9.13,0-15.14-6.07-15.14-14.97c0-8.96,6.18-15.03,14.97-15.08  C172.84,95.7,177.07,102.49,176.29,113.18 M170.72,108.5c-0.22-4.79-3.39-7.68-8.24-7.68c-4.68,0-7.96,2.95-8.68,7.68H170.72z"
     class="st1" /><path
     id="path16"
     d="M205.95,100.54l-3.5,4.12c-2.06-2.11-4.9-3.4-8.46-3.34c-5.12,0-8.79,3.84-8.79,9.46s3.67,9.46,8.79,9.46  c3.73,0,6.73-1.22,8.74-3.56l3.56,3.56c-2.67,3.51-6.96,5.51-12.58,5.51c-8.79,0-14.92-6.07-14.92-14.97  c0-8.96,6.12-15.08,14.92-15.08C199.05,95.7,203.23,97.43,205.95,100.54"
     class="st1" /><path
     id="path18"
     d="M240.24,107.11v18.42h-6.4v-16.64c0-4.45-2.67-7.18-7.12-7.18c-5.29,0.06-8.46,4.01-8.46,9.24v14.58h-6.4v-41.3  h6.4v17.48c2.12-4.18,5.9-6.01,10.97-6.01C236.12,95.7,240.24,100.04,240.24,107.11"
     class="st1" /><path
     id="path20"
     d="M275.75,107.11v18.42h-6.4v-16.64c0-4.45-2.67-7.18-7.13-7.18c-4.9,0.06-7.96,3.45-8.4,8.07v15.75h-6.4V95.92  h6.4v5.68c2.11-4.12,5.9-5.9,10.91-5.9C271.63,95.7,275.75,100.04,275.75,107.11"
     class="st1" /><path
     id="path22"
     d="M311.03,110.73c0,8.9-6.29,15.03-15.41,15.03c-9.18,0-15.47-6.12-15.47-15.03c0-8.96,6.29-15.03,15.47-15.03  C304.74,95.7,311.03,101.77,311.03,110.73 M286.55,110.78c0,5.73,3.73,9.63,9.07,9.63c5.29,0,9.02-3.9,9.02-9.63  c0-5.67-3.73-9.57-9.02-9.57C290.28,101.21,286.55,105.11,286.55,110.78"
     class="st1" /><rect
     id="rect24"
     height="41.3"
     width="6.4"
     class="st1"
     y="84.23"
     x="316.6" /><path
     id="path26"
     d="M359.46,110.73c0,8.9-6.29,15.03-15.41,15.03c-9.18,0-15.47-6.12-15.47-15.03c0-8.96,6.29-15.03,15.47-15.03  C353.17,95.7,359.46,101.77,359.46,110.73 M334.97,110.78c0,5.73,3.73,9.63,9.07,9.63c5.29,0,9.01-3.9,9.01-9.63  c0-5.67-3.73-9.57-9.01-9.57C338.7,101.21,334.97,105.11,334.97,110.78"
     class="st1" /><path
     id="path28"
     d="M391.46,122.64c0,8.51-6.07,13.86-15.36,13.86c-4.62,0-8.68-1.45-12.3-3.89l2.73-4.62  c2.78,2.06,5.68,3.23,9.3,3.23c5.62,0,9.29-3.29,9.29-8.41v-3.73c-2,3.23-5.34,5.01-9.8,5.01c-8.01,0-13.36-5.79-13.36-14.31  c0-8.35,5.29-14.03,13.13-14.08c4.56-0.05,7.96,1.78,10.02,5.01v-4.78h6.35V122.64z M385.11,109.95c0-5.34-3.5-9.07-8.52-9.07  c-5.06,0-8.57,3.79-8.62,9.07c0.05,5.35,3.51,9.13,8.62,9.13C381.61,119.08,385.11,115.29,385.11,109.95"
     class="st1" /><path
     id="path30"
     d="M405.87,87.46c0,2.23-1.61,3.84-3.73,3.84c-2.12,0-3.73-1.61-3.73-3.84c0-2.28,1.61-3.89,3.73-3.89  C404.26,83.57,405.87,85.18,405.87,87.46 M398.98,95.92h6.34v29.61h-6.34V95.92z"
     class="st1" /><path
     id="path32"
     d="M439.44,113.18h-22.37c1,4.56,4.51,7.4,9.18,7.4c3.23,0,6.18-1.22,8.35-3.45l3.4,3.62  c-2.89,3.17-7.12,5.01-12.25,5.01c-9.13,0-15.14-6.07-15.14-14.97c0-8.96,6.18-15.03,14.97-15.08  C435.98,95.7,440.22,102.49,439.44,113.18 M433.87,108.5c-0.22-4.79-3.39-7.68-8.24-7.68c-4.67,0-7.96,2.95-8.68,7.68H433.87z"
     class="st1" /><path
     id="path34"
     d="M463.93,98.65l-2.34,4.73c-2.62-1.61-5.9-2.62-8.52-2.62c-2.5,0-4.34,0.84-4.34,2.95  c0,5.45,15.75,2.5,15.69,13.24c0,6.07-5.4,8.8-11.35,8.8c-4.34,0-8.96-1.45-11.91-4.12l2.28-4.56c2.56,2.28,6.68,3.67,9.91,3.67  c2.73,0,4.84-0.95,4.84-3.17c0-6.07-15.59-2.67-15.53-13.36c0-6.01,5.23-8.57,10.91-8.57C457.31,95.64,461.26,96.76,463.93,98.65"
     class="st1" /><polygon
     id="polygon36"
     points="15.77,186.83 1.1,186.83 1.1,163.14 15.77,163.14 15.77,165.59 4.16,165.59 4.16,173.22 15.07,173.22   15.07,175.65 4.16,175.65 4.16,184.37 15.77,184.37 "
     class="st2" /><polygon
     id="polygon38"
     points="33.28,177.74 26.42,169.08 29.83,169.08 35.03,175.88 40.21,169.08 43.58,169.08 36.72,177.74   43.94,186.83 40.55,186.83 35.03,179.64 29.45,186.83 26.06,186.83 "
     class="st2" /><path
     id="path40"
     d="M64.4,187.15c-1.28,0-2.46-0.21-3.52-0.64c-1.06-0.43-1.95-1.08-2.67-1.97h-0.22c0.14,1.04,0.22,2.02,0.22,2.95  v7.31h-2.99v-25.73h2.43l0.41,2.43h0.14c0.77-0.97,1.66-1.67,2.68-2.11c1.02-0.43,2.19-0.65,3.51-0.65c2.62,0,4.64,0.8,6.06,2.42  c1.42,1.61,2.13,3.87,2.13,6.77c0,2.92-0.72,5.18-2.17,6.8C68.97,186.35,66.96,187.15,64.4,187.15 M63.97,171.04  c-2.02,0-3.47,0.5-4.37,1.51c-0.9,1-1.36,2.6-1.39,4.8v0.6c0,2.5,0.46,4.28,1.39,5.36c0.92,1.07,2.4,1.61,4.45,1.61  c1.71,0,3.04-0.62,4-1.86c0.97-1.24,1.45-2.96,1.45-5.14c0-2.21-0.48-3.91-1.45-5.1C67.08,171.63,65.72,171.04,63.97,171.04"
     class="st2" /><path
     id="path42"
     d="M97.31,186.83l-0.59-2.53h-0.14c-0.99,1.11-1.97,1.87-2.95,2.26c-0.98,0.4-2.2,0.59-3.66,0.59  c-1.96,0-3.49-0.45-4.6-1.36c-1.11-0.91-1.67-2.2-1.67-3.87c0-3.58,3.19-5.46,9.56-5.64l3.35-0.1v-1.1c0-1.39-0.34-2.42-1-3.09  c-0.67-0.66-1.73-1-3.2-1c-1.64,0-3.5,0.45-5.58,1.36l-0.92-2.06c0.97-0.48,2.04-0.85,3.2-1.12c1.16-0.27,2.32-0.41,3.48-0.41  c2.35,0,4.1,0.47,5.23,1.41c1.13,0.94,1.7,2.45,1.7,4.52v12.12H97.31z M90.56,184.94c1.86,0,3.32-0.46,4.38-1.38  c1.06-0.92,1.59-2.2,1.59-3.86v-1.6l-2.99,0.11c-2.38,0.08-4.09,0.41-5.14,1c-1.05,0.59-1.58,1.5-1.58,2.75  c0,0.97,0.33,1.71,0.98,2.22C88.47,184.68,89.39,184.94,90.56,184.94"
     class="st2" /><path
     id="path44"
     d="M126.56,186.83v-11.49c0-1.45-0.37-2.53-1.1-3.24c-0.73-0.71-1.88-1.07-3.44-1.07c-2.06,0-3.58,0.5-4.54,1.51  c-0.96,1-1.44,2.66-1.44,4.97v9.32h-2.99v-17.76h2.43l0.49,2.43h0.14c0.61-0.87,1.47-1.55,2.57-2.03c1.1-0.48,2.34-0.72,3.69-0.72  c2.38,0,4.16,0.51,5.37,1.55c1.2,1.03,1.8,2.68,1.8,4.95v11.58H126.56z"
     class="st2" /><path
     id="path46"
     d="M156.49,184.45h-0.17c-1.38,1.8-3.44,2.7-6.19,2.7c-2.58,0-4.59-0.79-6.02-2.38c-1.44-1.59-2.15-3.84-2.15-6.77  c0-2.93,0.72-5.2,2.16-6.82c1.44-1.62,3.44-2.43,6.01-2.43c2.68,0,4.73,0.87,6.15,2.62h0.24l-0.13-1.28l-0.07-1.25v-7.23h2.99v25.21  h-2.43L156.49,184.45z M150.51,184.9c2.04,0,3.52-0.5,4.44-1.5c0.92-1,1.38-2.61,1.38-4.84V178c0-2.52-0.46-4.32-1.39-5.39  c-0.93-1.07-2.41-1.61-4.45-1.61c-1.75,0-3.09,0.61-4.02,1.84c-0.93,1.23-1.4,2.96-1.4,5.19c0,2.27,0.46,3.98,1.39,5.13  C147.37,184.33,148.72,184.9,150.51,184.9"
     class="st2" /><path
     id="path48"
     d="M172.77,164.26c0-0.61,0.17-1.07,0.5-1.35c0.34-0.29,0.76-0.43,1.26-0.43c0.48,0,0.89,0.15,1.24,0.44  c0.35,0.29,0.52,0.74,0.52,1.34c0,0.61-0.17,1.06-0.52,1.35c-0.35,0.3-0.76,0.45-1.24,0.45c-0.5,0-0.92-0.15-1.26-0.45  C172.94,165.32,172.77,164.87,172.77,164.26 M176.01,186.83h-2.99v-17.76h2.99V186.83z"
     class="st2" /><path
     id="path50"
     d="M203.22,186.83v-11.49c0-1.45-0.37-2.53-1.1-3.24c-0.73-0.71-1.88-1.07-3.44-1.07c-2.06,0-3.58,0.5-4.54,1.51  c-0.96,1-1.44,2.66-1.44,4.97v9.32h-2.99v-17.76h2.43l0.49,2.43h0.14c0.61-0.87,1.47-1.55,2.57-2.03c1.1-0.48,2.33-0.72,3.69-0.72  c2.37,0,4.16,0.51,5.36,1.55c1.2,1.03,1.8,2.68,1.8,4.95v11.58H203.22z"
     class="st2" /><path
     id="path52"
     d="M235.87,169.08v1.7l-3.66,0.39c0.34,0.38,0.64,0.87,0.9,1.48c0.26,0.61,0.4,1.3,0.4,2.06  c0,1.74-0.66,3.13-1.98,4.16c-1.32,1.04-3.13,1.55-5.44,1.55c-0.59,0-1.14-0.04-1.66-0.13c-1.27,0.61-1.91,1.37-1.91,2.29  c0,0.49,0.22,0.85,0.67,1.08c0.44,0.23,1.21,0.35,2.29,0.35h3.49c2.14,0,3.78,0.41,4.92,1.22c1.15,0.81,1.72,1.99,1.72,3.53  c0,1.96-0.88,3.46-2.63,4.5c-1.75,1.03-4.31,1.55-7.67,1.55c-2.58,0-4.57-0.43-5.97-1.29c-1.4-0.87-2.1-2.09-2.1-3.66  c0-1.08,0.38-2.01,1.15-2.8c0.77-0.79,1.85-1.33,3.24-1.61c-0.5-0.21-0.93-0.52-1.27-0.95c-0.34-0.43-0.51-0.93-0.51-1.51  c0-0.65,0.19-1.22,0.58-1.7c0.38-0.49,0.99-0.96,1.82-1.41c-1.02-0.38-1.85-1.02-2.49-1.93c-0.64-0.91-0.96-1.94-0.96-3.11  c0-1.94,0.65-3.44,1.95-4.5c1.29-1.05,3.13-1.58,5.51-1.58c1.03,0,1.96,0.11,2.79,0.33H235.87z M220.14,189.81  c0,0.96,0.45,1.69,1.35,2.19c0.9,0.5,2.19,0.75,3.87,0.75c2.51,0,4.37-0.34,5.57-1.01c1.21-0.68,1.81-1.59,1.81-2.75  c0-0.96-0.33-1.63-0.99-2c-0.66-0.37-1.9-0.56-3.73-0.56h-3.59c-1.36,0-2.41,0.29-3.17,0.87  C220.51,187.88,220.14,188.72,220.14,189.81 M221.75,174.76c0,1.24,0.39,2.18,1.17,2.82c0.78,0.64,1.86,0.96,3.26,0.96  c2.92,0,4.38-1.27,4.38-3.82c0-2.67-1.48-4-4.43-4c-1.4,0-2.48,0.34-3.24,1.02C222.13,172.41,221.75,173.42,221.75,174.76"
     class="st2" /><polygon
     id="polygon54"
     points="284.67,186.83 281.61,186.83 281.61,175.68 267.75,175.68 267.75,186.83 264.69,186.83 264.69,163.14   267.75,163.14 267.75,173.22 281.61,173.22 281.61,163.14 284.67,163.14 "
     class="st2" /><path
     id="path56"
     d="M315.84,177.94c0,2.89-0.81,5.16-2.43,6.78c-1.62,1.62-3.86,2.44-6.72,2.44c-1.77,0-3.33-0.37-4.7-1.12  c-1.37-0.74-2.43-1.81-3.17-3.21c-0.74-1.39-1.12-3.02-1.12-4.89c0-2.89,0.8-5.15,2.41-6.76c1.61-1.61,3.84-2.42,6.7-2.42  c2.76,0,4.95,0.82,6.58,2.48C315.03,172.88,315.84,175.12,315.84,177.94 M300.81,177.94c0,2.27,0.5,4,1.51,5.18  c1.01,1.19,2.49,1.78,4.45,1.78c1.96,0,3.44-0.59,4.46-1.78c1.01-1.18,1.52-2.91,1.52-5.19c0-2.26-0.51-3.97-1.52-5.14  c-1.02-1.17-2.51-1.76-4.49-1.76c-1.96,0-3.43,0.58-4.43,1.73C301.31,173.92,300.81,175.65,300.81,177.94"
     class="st2" /><path
     id="path58"
     d="M337.46,168.75c0.88,0,1.66,0.07,2.36,0.19l-0.41,2.5c-0.82-0.16-1.54-0.24-2.16-0.24  c-1.6,0-2.96,0.58-4.1,1.75c-1.13,1.17-1.7,2.62-1.7,4.36v9.53h-2.99v-17.76h2.47l0.34,3.29h0.14c0.73-1.16,1.61-2.05,2.65-2.68  C335.09,169.06,336.22,168.75,337.46,168.75"
     class="st2" /><path
     id="path60"
     d="M350.63,164.26c0-0.61,0.17-1.07,0.5-1.35c0.34-0.29,0.76-0.43,1.26-0.43c0.48,0,0.89,0.15,1.24,0.44  c0.35,0.29,0.52,0.74,0.52,1.34c0,0.61-0.18,1.06-0.52,1.35c-0.35,0.3-0.76,0.45-1.24,0.45c-0.5,0-0.92-0.15-1.26-0.45  C350.79,165.32,350.63,164.87,350.63,164.26 M353.87,186.83h-2.99v-17.76h2.99V186.83z"
     class="st2" /><polygon
     id="polygon62"
     points="380.19,186.83 365.88,186.83 365.88,185 376.65,171.17 366.55,171.17 366.55,169.08 379.92,169.08   379.92,171.17 369.3,184.74 380.19,184.74 "
     class="st2" /><path
     id="path64"
     d="M409.22,177.94c0,2.89-0.81,5.16-2.43,6.78c-1.62,1.62-3.86,2.44-6.71,2.44c-1.77,0-3.33-0.37-4.7-1.12  c-1.37-0.74-2.42-1.81-3.17-3.21c-0.75-1.39-1.11-3.02-1.11-4.89c0-2.89,0.8-5.15,2.41-6.76c1.61-1.61,3.84-2.42,6.7-2.42  c2.76,0,4.95,0.82,6.58,2.48C408.41,172.88,409.22,175.12,409.22,177.94 M394.19,177.94c0,2.27,0.51,4,1.51,5.18  c1.01,1.19,2.49,1.78,4.45,1.78c1.95,0,3.44-0.59,4.46-1.78c1.01-1.18,1.52-2.91,1.52-5.19c0-2.26-0.51-3.97-1.52-5.14  c-1.02-1.17-2.51-1.76-4.49-1.76c-1.96,0-3.43,0.58-4.43,1.73C394.69,173.92,394.19,175.65,394.19,177.94"
     class="st2" /><path
     id="path66"
     d="M435.33,186.83v-11.49c0-1.45-0.36-2.53-1.1-3.24c-0.73-0.71-1.88-1.07-3.43-1.07c-2.07,0-3.58,0.5-4.54,1.51  c-0.96,1-1.44,2.66-1.44,4.97v9.32h-2.99v-17.76h2.43l0.49,2.43h0.14c0.61-0.87,1.47-1.55,2.58-2.03c1.1-0.48,2.34-0.72,3.69-0.72  c2.37,0,4.16,0.51,5.36,1.55c1.2,1.03,1.8,2.68,1.8,4.95v11.58H435.33z"
     class="st2" /><path
     id="path68"
     d="M464.56,181.99c0,1.65-0.68,2.93-2.05,3.82c-1.37,0.9-3.28,1.34-5.76,1.34c-2.62,0-4.66-0.37-6.12-1.12v-2.49  c0.95,0.43,1.97,0.77,3.05,1.02c1.09,0.25,2.13,0.37,3.14,0.37c1.56,0,2.76-0.23,3.6-0.67c0.84-0.45,1.26-1.13,1.26-2.05  c0-0.69-0.33-1.28-1-1.77c-0.67-0.49-1.97-1.07-3.9-1.74c-1.83-0.62-3.14-1.15-3.92-1.61c-0.77-0.46-1.35-0.98-1.73-1.56  c-0.38-0.58-0.57-1.28-0.57-2.09c0-1.45,0.66-2.59,1.96-3.43c1.31-0.84,3.1-1.26,5.38-1.26c2.12,0,4.2,0.39,6.23,1.16l-1.06,2.19  c-1.98-0.74-3.78-1.1-5.38-1.1c-1.42,0-2.49,0.2-3.2,0.6c-0.72,0.4-1.08,0.95-1.08,1.65c0,0.47,0.13,0.88,0.41,1.21  c0.27,0.34,0.7,0.65,1.31,0.96c0.6,0.3,1.75,0.74,3.46,1.31c2.34,0.77,3.92,1.54,4.74,2.31  C464.15,179.83,464.56,180.81,464.56,181.99"
     class="st2" /><g
     id="g90"><defs
       id="defs71"><rect
         height="127.1"
         width="99.63"
         id="SVGID_1_" /></defs><clipPath
       id="SVGID_2_"><use
         id="use73"
         style="overflow:visible;"
         xlink:href="#SVGID_1_" /></clipPath><g
       id="g88"
       clip-path="url(#SVGID_2_)"
       class="st3"><rect
         id="rect76"
         height="21.4"
         width="99.74"
         class="st4"
         y="84.49"
         x="0" /><polygon
         id="polygon78"
         points="0,126.82 31.28,126.82 33.79,126.82 42.01,126.82 43.82,126.82 99.74,126.82 99.74,105.88 0,105.88       "
         class="st5" /><polygon
         id="polygon80"
         points="0,73.57 0,76.21 0,84.49 99.74,84.49 99.74,76.21 99.74,73.57 99.74,63.55 0,63.55   "
         class="st6" /><polygon
         id="polygon82"
         points="99.74,0.29 43.82,0.29 42.01,0.29 33.79,0.29 31.28,0.29 0,0.29 0,21.22 99.74,21.22   "
         class="st7" /><polygon
         id="polygon84"
         points="99.74,50.9 99.74,42.62 0,42.62 0,50.9 0,58.81 0,63.55 99.74,63.55 99.74,58.81   "
         class="st8" /><rect
         id="rect86"
         height="21.4"
         width="99.74"
         class="st9"
         y="21.22"
         x="0" /></g></g><path
     id="path92"
     d="M0.11,1.03c0-0.07-0.04-0.11-0.11-0.11V0h36.14c29.1,34.96,49.8,74.98,63.25,122.17  C73.48,74.9,40.77,35.22,0.11,1.03"
     class="st10" /><path
     id="path94"
     d="M99.74,6.61v28.5c-0.08,0.08-0.15,0.15-0.23,0.23c-15.81,17.71-30.97,39.67-45.48,65.89  C65.28,67.41,80.44,35.98,99.51,6.96C99.59,6.8,99.67,6.69,99.74,6.61"
     class="st11" /><rect
     id="rect96"
     height="194.8"
     width="464.93"
     class="st12"
     y="0" /><g
     id="g118"><defs
       id="defs99"><rect
         height="1.53"
         width="464.93"
         y="143.94"
         x="-0.26"
         id="SVGID_3_" /></defs><clipPath
       id="SVGID_4_"><use
         id="use101"
         style="overflow:visible;"
         xlink:href="#SVGID_3_" /></clipPath><g
       id="g116"
       clip-path="url(#SVGID_4_)"
       class="st13"><rect
         id="rect104"
         height="1.53"
         width="78.27"
         class="st4"
         y="143.94"
         x="308.77" /><polygon
         id="polygon106"
         points="463.61,145.47 463.61,144.99 463.61,144.95 463.61,144.82 463.61,144.79 463.61,143.94     387.04,143.94 387.04,145.47   "
         class="st5" /><polygon
         id="polygon108"
         points="268.84,145.47 278.48,145.47 308.77,145.47 308.77,143.94 278.48,143.94 268.84,143.94 232.2,143.94     232.2,145.47   "
         class="st6" /><polygon
         id="polygon110"
         points="0.79,143.94 0.79,144.79 0.79,144.82 0.79,144.95 0.79,144.99 0.79,145.47 77.36,145.47     77.36,143.94   "
         class="st7" /><polygon
         id="polygon112"
         points="185.92,143.94 155.63,143.94 155.63,145.47 185.92,145.47 214.85,145.47 232.2,145.47 232.2,143.94     214.85,143.94   "
         class="st8" /><rect
         id="rect114"
         height="1.53"
         width="78.27"
         class="st9"
         y="143.94"
         x="77.36" /></g></g></svg>