<?xml version="1.0" encoding="utf-8"?>
<!-- Generator: Adobe Illustrator 24.0.1, SVG Export Plug-In . SVG Version: 6.00 Build 0)  -->
<svg version="1.1" id="Capa_1" xmlns="http://www.w3.org/2000/svg" xmlns:xlink="http://www.w3.org/1999/xlink" x="0px" y="0px"
	 viewBox="0 0 55 55" style="enable-background:new 0 0 55 55;" xml:space="preserve">
<style type="text/css">
	.st0{fill:#00AEFF;}
</style>
<g>
	<circle class="st0" cx="7.5" cy="29" r="1"/>
	<circle class="st0" cx="7.5" cy="35" r="1"/>
	<circle class="st0" cx="10.5" cy="32" r="1"/>
	<circle class="st0" cx="16.5" cy="32" r="1"/>
	<circle class="st0" cx="13.5" cy="35" r="1"/>
	<circle class="st0" cx="19.5" cy="35" r="1"/>
	<circle class="st0" cx="22.5" cy="32" r="1"/>
	<circle class="st0" cx="28.5" cy="32" r="1"/>
	<circle class="st0" cx="25.5" cy="35" r="1"/>
	<circle class="st0" cx="31.5" cy="35" r="1"/>
	<circle class="st0" cx="34.5" cy="32" r="1"/>
	<circle class="st0" cx="40.5" cy="32" r="1"/>
	<circle class="st0" cx="37.5" cy="35" r="1"/>
	<circle class="st0" cx="43.5" cy="35" r="1"/>
	<circle class="st0" cx="46.5" cy="32" r="1"/>
	<circle class="st0" cx="49.5" cy="29" r="1"/>
	<circle class="st0" cx="16.5" cy="38" r="1"/>
	<circle class="st0" cx="22.5" cy="38" r="1"/>
	<circle class="st0" cx="28.5" cy="38" r="1"/>
	<circle class="st0" cx="34.5" cy="38" r="1"/>
	<circle class="st0" cx="40.5" cy="38" r="1"/>
	<path class="st0" d="M52.4,8.7C52.4,8.6,52.4,8.6,52.4,8.7c0-0.1,0-0.1-0.1-0.1C51.2,3.6,40.6,0,27.5,0S3.8,3.6,2.6,8.5
		c0,0,0,0,0,0.1c0,0,0,0,0,0.1c0,0.1-0.1,0.2-0.1,0.3v0.5V33v0.5V46c0,0.2,0,0.3,0.1,0.5C3.8,51.3,14.4,55,27.5,55
		c13.1,0,23.7-3.6,24.9-8.5c0.1-0.1,0.1-0.3,0.1-0.5V33.5V33V9.5V9C52.5,8.9,52.5,8.8,52.4,8.7z M47.1,37.2C47,37.1,46.7,37,46.5,37
		c-0.6,0-1,0.4-1,1c0,0,0,0,0,0c-2,0.8-4.6,1.6-7.5,2.1c-0.1-0.1-0.3-0.1-0.5-0.1c-0.3,0-0.6,0.1-0.7,0.3c-1.4,0.2-2.8,0.4-4.3,0.5
		c-0.1-0.5-0.5-0.8-1-0.8c-0.5,0-0.9,0.4-1,0.9c-1,0-2,0.1-3,0.1c-0.3,0-0.7,0-1,0c0-0.5-0.5-1-1-1c-0.5,0-0.9,0.4-1,0.9
		c-1.4-0.1-2.8-0.2-4.1-0.3c-0.2-0.4-0.5-0.6-0.9-0.6c-0.3,0-0.6,0.2-0.8,0.4c-2.9-0.4-5.4-1-7.5-1.7c0.2-0.2,0.3-0.4,0.3-0.7
		c0-0.6-0.4-1-1-1s-1,0.4-1,1c0,0,0,0,0,0c-3.2-1.3-5-3-5-4.5c0-0.1,0-0.2,0-0.3c0-0.1,0-0.1,0-0.2c0.5,0,1-0.5,1-1c0-0.6-0.4-1-1-1
		v-4c0.5,0,0.9-0.4,1-0.9c1.7,1.2,4.1,2.3,7,3.1c0.1,0.5,0.5,0.8,1,0.8c0.3,0,0.6-0.2,0.8-0.4c3.8,0.9,8.3,1.4,13.2,1.4
		c5.7,0,10.9-0.7,15-1.9c0.1,0.5,0.5,0.9,1,0.9c0.6,0,1-0.4,1-1c0-0.2,0-0.3-0.1-0.4c2.6-0.9,4.7-2,6.1-3.3V29v3.7
		c0,0.1-0.1,0.3,0,0.4c0,0.1,0,0.2,0,0.3c0,0.3-0.1,0.6-0.2,0.9c-0.2-0.2-0.5-0.4-0.8-0.4c-0.6,0-1,0.4-1,1c0,0.4,0.2,0.8,0.6,0.9
		C48.6,36.4,47.9,36.8,47.1,37.2z M50.5,21.7C50.5,21.8,50.5,21.8,50.5,21.7c-0.6,3.6-10,7.3-23,7.3s-22.4-3.7-23-7.2
		c0,0,0-0.1,0-0.1v-8.5c3.4,3.2,11.2,5.7,23,5.7s19.6-2.6,23-5.7V21.7z M27.5,2c13,0,22.4,3.7,23,7.2l0,0c0,0.1,0,0.2,0,0.3
		c0,3.5-9.4,7.5-23,7.5s-23-4-23-7.5c0-0.1,0-0.2,0-0.3l0,0C5.1,5.7,14.5,2,27.5,2z M50.5,45.8c-0.6,3.5-9.9,7.2-23,7.2
		s-22.4-3.7-23-7.2c0,0,0-0.1,0-0.1v-8.4c3.4,3.2,11.2,5.7,23,5.7s19.6-2.6,23-5.7v8.4C50.5,45.7,50.5,45.8,50.5,45.8z"/>
</g>
</svg>
